HIERARCHY
ROOT hip
{
	OFFSET	0.00  0.00  0.00 
	CHANNELS 6 Xposition Yposition Zposition Xrotation Zrotation Yrotation
	JOINT abdomen
	{
		OFFSET	0.000000 1.799998 0.000000
		CHANNELS 3 Xrotation Zrotation Yrotation
		JOINT chest
		{
			OFFSET	0.000000 4.464001 -0.360000
			CHANNELS 3 Xrotation Zrotation Yrotation
			JOINT neck
			{
				OFFSET	0.000000 5.400002 -0.144000
				CHANNELS 3 Xrotation Zrotation Yrotation
				JOINT head
				{
					OFFSET	0.000000 1.655998 0.000000
					CHANNELS 3 Xrotation Zrotation Yrotation
					End Site
					{
						OFFSET 0.000000 1.656000 0.000000
					}
				}
			}
			JOINT lCollar
			{
				OFFSET	1.800000 3.528000 -0.432000
				CHANNELS 3 Yrotation Zrotation Xrotation
				JOINT lShldr
				{
					OFFSET	1.728000 0.000000 0.000000
					CHANNELS 3 Zrotation Yrotation Xrotation
					JOINT lForeArm
					{
						OFFSET	5.328000 0.000000 0.000000
						CHANNELS 3 Yrotation Zrotation Xrotation
						JOINT lHand
						{
							OFFSET	4.464000 0.000000 0.000000
							CHANNELS 3 Zrotation Yrotation Xrotation
						}
					}
				}
			}
			JOINT rCollar
			{
				OFFSET	-1.872000 3.528000 -0.432000
				CHANNELS 3 Yrotation Zrotation Xrotation
				JOINT rShldr
				{
					OFFSET	-1.656000 0.000000 0.000000
					CHANNELS 3 Zrotation Yrotation Xrotation
					JOINT rForeArm
					{
						OFFSET	-5.400000 0.000000 0.000000
						CHANNELS 3 Yrotation Zrotation Xrotation
						JOINT rHand
						{
							OFFSET	-4.392000 0.000000 0.000000
							CHANNELS 3 Zrotation Yrotation Xrotation
						}
					}
				}
			}
		}
	}
	JOINT lThigh
	{
		OFFSET	2.808000 -0.864002 0.720000
		CHANNELS 3 Xrotation Zrotation Yrotation
		JOINT lShin
		{
			OFFSET	-1.080000 -10.583999 0.000000
			CHANNELS 3 Xrotation Zrotation Yrotation
			JOINT lFoot
			{
				OFFSET	0.000000 -10.152000 -0.648000
				CHANNELS 3 Xrotation Yrotation Zrotation
				End Site
				{
					OFFSET 0.000000 -1.296000 2.448000
				}
			}
		}
	}
	JOINT rThigh
	{
		OFFSET	-2.808000 -0.864002 0.720000
		CHANNELS 3 Xrotation Zrotation Yrotation
		JOINT rShin
		{
			OFFSET	1.080000 -10.583999 0.000000
			CHANNELS 3 Xrotation Zrotation Yrotation
			JOINT rFoot
			{
				OFFSET	0.000000 -10.152000 -0.648000
				CHANNELS 3 Xrotation Yrotation Zrotation
				End Site
				{
					OFFSET 0.000000 -1.296000 2.448000
				}
			}
		}
	}
}
MOTION
Frames:     13
Frame Time: 0.033333
0.000000 23.151886 0.000000 0.000000 0.000000 0.000000 0.000000 0.000000 0.000000 0.000000 0.000000 0.000000 0.000000 0.000000 0.000000 0.000000 0.000000 0.000000 0.000000 0.000000 0.000000 0.000000 0.000000 0.000000 0.000000 0.000000 0.000000 0.000000 0.000000 0.000000 9.990230 0.000000 0.000000 0.000000 0.000000 0.000000 0.000000 0.000000 0.000000 0.000000 0.000000 0.000000 0.000000 0.000000 0.000000 0.009766 0.000000 0.000000 -0.273438 0.000000 0.000000 -0.009715 -0.068359 -0.000991 0.028032 0.040519 0.007210 0.486727 0.114389 0.093010 
0.102666 12.262465 0.779141 7.000000 0.000000 0.000000 0.000000 0.000000 0.000000 12.910200 -0.361342 -6.679440 0.000000 0.000000 0.000000 0.000000 0.000000 0.000000 -21.231899 -11.622200 7.002060 -47.985901 -18.523701 -4.123600 -81.243698 -0.047627 18.965500 -17.149500 13.631700 26.417999 30.000000 18.057699 -8.099370 39.372601 5.806190 -8.368470 68.604301 -5.000000 19.884600 -10.113600 6.605920 28.981199 -103.768997 21.993700 -2.304060 95.896698 3.022780 -2.351600 4.829880 1.016860 -4.059930 -99.755898 -24.589800 5.175780 91.806602 -4.999990 -2.548830 -1.768120 3.405410 7.532230 
0.102666 12.262465 0.779141 7.000000 0.000000 0.000000 0.000000 0.000000 0.000000 12.910200 -0.361342 -6.679440 0.000000 0.000000 0.000000 0.000000 0.000000 0.000000 -21.231899 -11.622200 7.002060 -47.985901 -18.523701 -4.123600 -81.243698 -0.047627 18.965500 -17.149500 13.631700 26.417999 30.000000 18.057699 -8.099370 39.372601 5.806190 -8.368470 68.604301 -5.000000 19.884600 -10.113600 6.605920 28.981199 -103.768997 21.993700 -2.304060 95.896698 3.022780 -2.351600 4.829880 1.016860 -4.059930 -99.755898 -24.589800 5.175780 91.806602 -4.999990 -2.548830 -1.768120 3.405410 7.532230 
0.102666 12.262465 0.779141 7.000000 0.000000 0.000000 0.000000 0.000000 0.000000 12.910200 -0.361342 -6.679440 0.000000 0.000000 0.000000 0.000000 0.000000 0.000000 -21.231899 -11.622200 7.002060 -47.985901 -18.523701 -4.123600 -81.243698 -0.047627 18.965500 -17.149500 13.631700 26.417999 30.000000 18.057699 -8.099370 39.372601 5.806190 -8.368470 68.604301 -5.000000 19.884600 -10.113600 6.605920 28.981199 -103.768997 21.993700 -2.304060 95.896698 3.022780 -2.351600 4.829880 1.016860 -4.059930 -99.755898 -24.589800 5.175780 91.806602 -4.999990 -2.548830 -1.768120 3.405410 7.532230 
0.102666 12.262465 0.779141 7.000000 0.000000 0.000000 0.000000 0.000000 0.000000 12.910200 -0.361342 -6.679440 0.000000 0.000000 0.000000 0.000000 0.000000 0.000000 -21.231899 -11.622200 7.002060 -47.985901 -18.523701 -4.123600 -81.243698 -0.047627 18.965500 -17.149500 13.631700 26.417999 30.000000 18.057699 -8.099370 39.372601 5.806190 -8.368470 68.604301 -5.000000 19.884600 -10.113600 6.605920 28.981199 -103.768997 21.993700 -2.304060 95.896698 3.022780 -2.351600 4.829880 1.016860 -4.059930 -99.755898 -24.589800 5.175780 91.806602 -4.999990 -2.548830 -1.768120 3.405410 7.532230 
0.102666 12.262465 0.779141 7.000000 0.000000 0.000000 0.000000 0.000000 0.000000 12.910200 -0.361342 -6.679440 0.000000 0.000000 0.000000 0.000000 0.000000 0.000000 -21.231899 -11.622200 7.002060 -47.985901 -18.523701 -4.123600 -81.243698 -0.047627 18.965500 -17.149500 13.631700 26.417999 30.000000 18.057699 -8.099370 39.372601 5.806190 -8.368470 68.604301 -5.000000 19.884600 -10.113600 6.605920 28.981199 -103.768997 21.993700 -2.304060 95.896698 3.022780 -2.351600 4.829880 1.016860 -4.059930 -99.755898 -24.589800 5.175780 91.806602 -4.999990 -2.548830 -1.768120 3.405410 7.532230 
0.102666 12.262465 0.779141 7.000000 0.000000 0.000000 0.000000 0.000000 0.000000 12.910200 -0.361342 -6.679440 0.000000 0.000000 0.000000 0.000000 0.000000 0.000000 -21.231899 -11.622200 7.002060 -47.985901 -18.523701 -4.123600 -81.243698 -0.047627 18.965500 -17.149500 13.631700 26.417999 30.000000 18.057699 -8.099370 39.372601 5.806190 -8.368470 68.604301 -5.000000 19.884600 -10.113600 6.605920 28.981199 -103.768997 21.993700 -2.304060 95.896698 3.022780 -2.351600 4.829880 1.016860 -4.059930 -99.755898 -24.589800 5.175780 91.806602 -4.999990 -2.548830 -1.768120 3.405410 7.532230 
0.102666 12.262465 0.779141 7.000000 0.000000 0.000000 0.000000 0.000000 0.000000 12.910200 -0.361342 -6.679440 0.000000 0.000000 0.000000 0.000000 0.000000 0.000000 -21.231899 -11.622200 7.002060 -47.985901 -18.523701 -4.123600 -81.243698 -0.047627 18.965500 -17.149500 13.631700 26.417999 30.000000 18.057699 -8.099370 39.372601 5.806190 -8.368470 68.604301 -5.000000 19.884600 -10.113600 6.605920 28.981199 -103.768997 21.993700 -2.304060 95.896698 3.022780 -2.351600 4.829880 1.016860 -4.059930 -99.755898 -24.589800 5.175780 91.806602 -4.999990 -2.548830 -1.768120 3.405410 7.532230 
0.102666 12.262465 0.779141 7.000000 0.000000 0.000000 0.000000 0.000000 0.000000 12.910200 -0.361342 -6.679440 0.000000 0.000000 0.000000 0.000000 0.000000 0.000000 -21.231899 -11.622200 7.002060 -47.985901 -18.523701 -4.123600 -81.243698 -0.047627 18.965500 -17.149500 13.631700 26.417999 30.000000 18.057699 -8.099370 39.372601 5.806190 -8.368470 68.604301 -5.000000 19.884600 -10.113600 6.605920 28.981199 -103.768997 21.993700 -2.304060 95.896698 3.022780 -2.351600 4.829880 1.016860 -4.059930 -99.755898 -24.589800 5.175780 91.806602 -4.999990 -2.548830 -1.768120 3.405410 7.532230 
0.102666 12.262465 0.779141 7.000000 0.000000 0.000000 0.000000 0.000000 0.000000 12.910200 -0.361342 -6.679440 0.000000 0.000000 0.000000 0.000000 0.000000 0.000000 -21.231899 -11.622200 7.002060 -47.985901 -18.523701 -4.123600 -81.243698 -0.047627 18.965500 -17.149500 13.631700 26.417999 30.000000 18.057699 -8.099370 39.372601 5.806190 -8.368470 68.604301 -5.000000 19.884600 -10.113600 6.605920 28.981199 -103.768997 21.993700 -2.304060 95.896698 3.022780 -2.351600 4.829880 1.016860 -4.059930 -99.755898 -24.589800 5.175780 91.806602 -4.999990 -2.548830 -1.768120 3.405410 7.532230 
0.102666 12.262465 0.779141 7.000000 0.000000 0.000000 0.000000 0.000000 0.000000 12.910200 -0.361342 -6.679440 0.000000 0.000000 0.000000 0.000000 0.000000 0.000000 -21.231899 -11.622200 7.002060 -47.985901 -18.523701 -4.123600 -81.243698 -0.047627 18.965500 -17.149500 13.631700 26.417999 30.000000 18.057699 -8.099370 39.372601 5.806190 -8.368470 68.604301 -5.000000 19.884600 -10.113600 6.605920 28.981199 -103.768997 21.993700 -2.304060 95.896698 3.022780 -2.351600 4.829880 1.016860 -4.059930 -99.755898 -24.589800 5.175780 91.806602 -4.999990 -2.548830 -1.768120 3.405410 7.532230 
0.102666 12.262465 0.779141 7.000000 0.000000 0.000000 0.000000 0.000000 0.000000 12.910200 -0.361342 -6.679440 0.000000 0.000000 0.000000 0.000000 0.000000 0.000000 -21.231899 -11.622200 7.002060 -47.985901 -18.523701 -4.123600 -81.243698 -0.047627 18.965500 -17.149500 13.631700 26.417999 30.000000 18.057699 -8.099370 39.372601 5.806190 -8.368470 68.604301 -5.000000 19.884600 -10.113600 6.605920 28.981199 -103.768997 21.993700 -2.304060 95.896698 3.022780 -2.351600 4.829880 1.016860 -4.059930 -99.755898 -24.589800 5.175780 91.806602 -4.999990 -2.548830 -1.768120 3.405410 7.532230 
0.102666 12.262465 0.779141 7.000000 0.000000 0.000000 0.000000 0.000000 0.000000 12.910200 -0.361342 -6.679440 0.000000 0.000000 0.000000 0.000000 0.000000 0.000000 -21.231899 -11.622200 7.002060 -47.985901 -18.523701 -4.123600 -81.243698 -0.047627 18.965500 -17.149500 13.631700 26.417999 30.000000 18.057699 -8.099370 39.372601 5.806190 -8.368470 68.604301 -5.000000 19.884600 -10.113600 6.605920 28.981199 -103.768997 21.993700 -2.304060 95.896698 3.022780 -2.351600 4.829880 1.016860 -4.059930 -99.755898 -24.589800 5.175780 91.806602 -4.999990 -2.548830 -1.768120 3.405410 7.532230 
